<svg width="42" height="24" viewBox="0 0 42 24" fill="none" xmlns="http://www.w3.org/2000/svg">
<path d="M40.895 1.06587C40.547 0.727997 40.1337 0.459937 39.6786 0.27704C39.2236 0.0941434 38.7358 -1.42683e-07 38.2432 -1.64217e-07C37.7505 -1.8575e-07 37.2627 0.0941434 36.8077 0.27704C36.3526 0.459937 35.9393 0.727997 35.5913 1.06587L20.9967 15.2073L6.40213 1.06587C5.69882 0.384394 4.74492 0.00154166 3.75029 0.00154161C2.75565 0.00154157 1.80174 0.384393 1.09843 1.06587C0.395111 1.74735 -1.16781e-07 2.67164 -1.58908e-07 3.63539C-2.01035e-07 4.59915 0.395111 5.52343 1.09843 6.20491L18.3637 22.9341C18.7117 23.272 19.125 23.5401 19.5801 23.723C20.0351 23.9059 20.5229 24 21.0155 24C21.5082 24 21.996 23.9059 22.451 23.723C22.906 23.5401 23.3194 23.272 23.6674 22.9341L40.9326 6.20491C42.362 4.81992 42.362 2.48731 40.895 1.06587Z" fill="white"/>
</svg>
