<svg width="158" height="166" viewBox="0 0 158 166" fill="none" xmlns="http://www.w3.org/2000/svg">
<g style="mix-blend-mode:hard-light" filter="url(#filter0_f_7_436)">
<path d="M98.8924 99.7848L82.426 117.46C81.6405 118.303 80.3122 118.337 79.485 117.534L42.5219 81.6792C41.9196 81.0949 41.7352 80.2043 42.0563 79.4306L52.1857 55.02C52.6441 53.9152 53.9512 53.4349 55.0201 53.9783L60.1018 56.5617C61.4228 57.2332 63.0013 56.333 63.0885 54.8583L63.6647 45.0997C63.7031 44.4486 64.0509 43.8547 64.6008 43.5006L83.8596 31.0998C85.0694 30.3208 86.6114 30.2678 87.8721 30.9617C89.0309 31.5995 89.7868 32.7781 89.8805 34.0934L90.6726 45.2178C90.7275 45.9896 91.073 46.7124 91.64 47.2414L104.231 58.9929C105.836 60.491 108.341 60.4654 109.915 58.9348L113.639 55.313C114.686 54.2942 116.437 54.6617 116.983 56.0148L120.815 65.521C120.986 65.945 121.01 66.414 120.882 66.8532L113.711 91.5285C113.365 92.7158 112.5 93.6842 111.357 94.1639L100.311 98.7959C99.7729 99.0215 99.2894 99.3585 98.8924 99.7848Z" fill="url(#paint0_linear_7_436)"/>
</g>
<g style="mix-blend-mode:hard-light" filter="url(#filter1_f_7_436)">
<path d="M98.8924 99.7848L82.426 117.46C81.6405 118.303 80.3122 118.337 79.485 117.534L42.5219 81.6792C41.9196 81.0949 41.7352 80.2043 42.0563 79.4306L52.1857 55.02C52.6441 53.9152 53.9512 53.4349 55.0201 53.9783L60.1018 56.5617C61.4228 57.2332 63.0013 56.333 63.0885 54.8583L63.6647 45.0997C63.7031 44.4486 64.0509 43.8547 64.6008 43.5006L83.8596 31.0998C85.0694 30.3208 86.6114 30.2678 87.8721 30.9617C89.0309 31.5995 89.7868 32.7781 89.8805 34.0934L90.6726 45.2178C90.7275 45.9896 91.073 46.7124 91.64 47.2414L104.231 58.9929C105.836 60.491 108.341 60.4654 109.915 58.9348L113.639 55.313C114.686 54.2942 116.437 54.6617 116.983 56.0148L120.815 65.521C120.986 65.945 121.01 66.414 120.882 66.8532L113.711 91.5285C113.365 92.7158 112.5 93.6842 111.357 94.1639L100.311 98.7959C99.7729 99.0215 99.2894 99.3585 98.8924 99.7848Z" fill="url(#paint1_linear_7_436)"/>
</g>
<path d="M98.8924 99.7848L82.426 117.46C81.6405 118.303 80.3122 118.337 79.485 117.534L42.5219 81.6792C41.9196 81.0949 41.7352 80.2043 42.0563 79.4306L52.1857 55.02C52.6441 53.9152 53.9512 53.4349 55.0201 53.9783L60.1018 56.5617C61.4228 57.2332 63.0013 56.333 63.0885 54.8583L63.6647 45.0997C63.7031 44.4486 64.0509 43.8547 64.6008 43.5006L83.8596 31.0998C85.0694 30.3208 86.6114 30.2678 87.8721 30.9617C89.0309 31.5995 89.7868 32.7781 89.8805 34.0934L90.6726 45.2178C90.7275 45.9896 91.073 46.7124 91.64 47.2414L104.231 58.9929C105.836 60.491 108.341 60.4654 109.915 58.9348L113.639 55.313C114.686 54.2942 116.437 54.6617 116.983 56.0148L120.815 65.521C120.986 65.945 121.01 66.414 120.882 66.8532L113.711 91.5285C113.365 92.7158 112.5 93.6842 111.357 94.1639L100.311 98.7959C99.7729 99.0215 99.2894 99.3585 98.8924 99.7848Z" fill="url(#paint2_linear_7_436)"/>
<path d="M72.8799 50.1058L79.4062 40.9325C79.6935 40.5286 80.3341 40.7303 80.3341 41.2246V47.3113C80.3341 47.4223 80.3709 47.5302 80.4386 47.6184L100.226 73.3786C100.322 73.5045 100.473 73.5782 100.632 73.5782H110.86C111.018 73.5782 111.173 73.6276 111.303 73.7194C111.673 73.9818 111.731 74.5058 111.427 74.8415L82.1032 107.182C81.5772 107.762 80.6528 107.737 80.1597 107.129L57.635 79.3733C57.4521 79.1481 57.3525 78.8679 57.3525 78.5788V64.5402C57.3525 64.0451 57.9945 63.8439 58.2813 64.2491L64.733 73.3629C64.8285 73.4979 64.9845 73.5782 65.1507 73.5782H79.7982C80.1411 73.5782 80.4695 73.715 80.7095 73.9578L86.6393 79.9545C86.8532 80.1709 86.9733 80.4622 86.9733 80.7655C86.9733 81.0328 86.8801 81.292 86.7095 81.499L82.4758 86.633C82.4114 86.7111 82.3249 86.7683 82.2273 86.7975L81.497 87.0149C81.2657 87.0838 81.0175 86.9824 80.9018 86.7721L80.446 85.9429C80.375 85.8137 80.364 85.6601 80.4161 85.5223L81.019 83.9277C81.0726 83.7855 81.1002 83.6348 81.1002 83.4828V82.7022C81.1002 82.3751 80.9728 82.0607 80.7445 81.8248L78.1866 79.1813C78.0904 79.0817 77.9573 79.0254 77.8184 79.0254H70.5547C70.1247 79.0254 69.8872 79.5205 70.1584 79.8516L80.2031 92.118C80.6822 92.703 81.5667 92.7461 82.1012 92.2105L93.1617 81.1276C93.6318 80.6566 93.6563 79.9054 93.2179 79.405L83.9341 68.8121C83.837 68.7013 83.6966 68.6377 83.5487 68.6377H71.2962C70.6188 68.6377 70.2748 67.8293 70.7475 67.3476L78.0674 59.8857C78.4938 59.451 78.5497 58.777 78.2004 58.2787L72.8779 50.6875C72.7553 50.5125 72.7561 50.2799 72.8799 50.1058Z" fill="white" stroke="#BFB6EE" stroke-width="3"/>
<defs>
<filter id="filter0_f_7_436" x="17.9004" y="6.47607" width="127.063" height="135.639" filterUnits="userSpaceOnUse" color-interpolation-filters="sRGB">
<feFlood flood-opacity="0" result="BackgroundImageFix"/>
<feBlend mode="normal" in="SourceGraphic" in2="BackgroundImageFix" result="shape"/>
<feGaussianBlur stdDeviation="12" result="effect1_foregroundBlur_7_436"/>
</filter>
<filter id="filter1_f_7_436" x="17.9004" y="6.47607" width="127.063" height="135.639" filterUnits="userSpaceOnUse" color-interpolation-filters="sRGB">
<feFlood flood-opacity="0" result="BackgroundImageFix"/>
<feBlend mode="normal" in="SourceGraphic" in2="BackgroundImageFix" result="shape"/>
<feGaussianBlur stdDeviation="12" result="effect1_foregroundBlur_7_436"/>
</filter>
<linearGradient id="paint0_linear_7_436" x1="81.302" y1="29.8347" x2="81.302" y2="118.998" gradientUnits="userSpaceOnUse">
<stop stop-color="#9EDBFA"/>
<stop offset="0.565" stop-color="#EB9EFA"/>
<stop offset="1" stop-color="#FAEC9E"/>
</linearGradient>
<linearGradient id="paint1_linear_7_436" x1="81.302" y1="29.8347" x2="81.302" y2="118.998" gradientUnits="userSpaceOnUse">
<stop stop-color="#9EDBFA"/>
<stop offset="0.565" stop-color="#EB9EFA"/>
<stop offset="1" stop-color="#FAEC9E"/>
</linearGradient>
<linearGradient id="paint2_linear_7_436" x1="81.302" y1="29.8347" x2="81.302" y2="118.998" gradientUnits="userSpaceOnUse">
<stop stop-color="#D5FBFF"/>
<stop offset="0.459973" stop-color="#F9D8FF"/>
<stop offset="0.590616" stop-color="#FCD5FF"/>
<stop offset="1" stop-color="#FFFC93"/>
</linearGradient>
</defs>
</svg>
