<svg width="1024" height="165" viewBox="0 0 1024 165" fill="none" xmlns="http://www.w3.org/2000/svg">
<path d="M30.9333 12.7121L0 14.8456V164.988H1024V8.17848L955.733 6.84507L937.067 12.1787L893.6 6.84507L892 10.5786L852 8.44517L802.133 12.4454L797.333 13.2455L800.267 6.84507L789.067 6.04502L719.733 12.4454L716.267 16.979L713.333 13.2455L664.267 10.312L610.4 3.37818L594.933 5.51165L552.8 4.44491L551.2 11.6454L541.867 3.37818L477.867 0.978027L481.867 7.37843V11.6454L468.267 9.77859L456.533 5.51165H428.533L425.067 8.44517L423.2 5.51165H379.733L334.4 18.8458L339.2 14.0455L329.867 7.37843L324.533 12.7121L247.2 11.9121L242.133 14.8456L237.333 10.8453H171.733L168.533 16.179V10.8453L158.4 5.51165V11.9121L150.133 7.11175L148.8 10.8453L145.867 7.11175H125.867L118.667 14.8456H49.3333L33.6 10.8453L31.7333 17.7791L30.9333 12.7121Z" fill="#0D0D0D"/>
</svg>
